# xmcd
#
# Track frame offsets:
#	150
#	15133
#	28803
#	46843
#	60645
#	73405
#	87973
#	102695
#	117170
#	132498
#	151668
#	166225
#	179435
#	193888
#
# Disc length: 2753 seconds
#
# Revision: 1
# Processed by: cddbd v1.5.2PL0 Copyright (c) Steve Scherf et al.
# Submitted via: audiograbber 1.83.01
#
DISCID=bd0abf0e
DTITLE=Arizonaz - Dansa och Trivs Nr 2
DYEAR=1900
DGENRE=Dansband
TTITLE0=Så spela en sång
TTITLE1=Följ en egen dröm
TTITLE2=En vän att älska
TTITLE3=Barndomstankar
TTITLE4=Den ena vit den andra röd
TTITLE5=Så tänd ett ljus
TTITLE6=Snälla pappa
TTITLE7=Det bultar och slår
TTITLE8=Efter alla dessa år
TTITLE9=Tusen bitar
TTITLE10=Eternal flame
TTITLE11=Går omkring och drömmer
TTITLE12=En sång för dig
TTITLE13=Allt vad du vill ha
EXTD=
EXTT0=
EXTT1=
EXTT2=
EXTT3=
EXTT4=
EXTT5=
EXTT6=
EXTT7=
EXTT8=
EXTT9=
EXTT10=
EXTT11=
EXTT12=
EXTT13=
PLAYORDER=
